<svg id="svg" version="1.1" xmlns="http://www.w3.org/2000/svg" xmlns:xlink="http://www.w3.org/1999/xlink" width="400" height="173.45872518286313" viewBox="0, 0, 400,173.45872518286313"><g id="svgg"><path id="path0" d="M0.000 86.730 L 0.000 173.461 200.000 173.461 L 400.000 173.461 400.000 86.730 L 400.000 0.000 200.000 0.000 L 0.000 0.000 0.000 86.730 M240.853 25.278 C 241.042 25.378,241.938 25.595,242.845 25.761 C 243.751 25.927,244.805 26.199,245.186 26.365 C 245.568 26.532,246.290 26.802,246.791 26.965 C 247.292 27.128,247.702 27.313,247.702 27.377 C 247.703 27.441,248.073 27.641,248.526 27.821 C 248.979 28.001,249.428 28.243,249.523 28.358 C 249.618 28.473,249.931 28.689,250.217 28.838 C 251.786 29.652,255.854 33.733,255.854 34.493 C 255.854 34.589,255.955 34.770,256.078 34.897 C 256.335 35.161,256.895 36.307,256.895 36.571 C 256.895 36.669,257.005 36.859,257.139 36.993 C 257.909 37.763,258.330 42.617,257.849 45.186 C 257.464 47.241,257.389 47.528,257.236 47.528 C 257.159 47.528,256.963 47.938,256.799 48.439 C 256.635 48.940,256.356 49.489,256.178 49.660 C 256.000 49.831,255.854 50.057,255.854 50.164 C 255.854 50.918,250.911 55.854,250.155 55.854 C 250.054 55.854,249.831 55.998,249.660 56.174 C 249.489 56.349,248.979 56.642,248.526 56.824 C 248.073 57.006,247.703 57.207,247.702 57.271 C 247.702 57.335,247.175 57.560,246.531 57.771 C 245.887 57.983,245.282 58.215,245.186 58.287 C 244.938 58.476,243.045 58.939,241.953 59.078 C 241.442 59.143,240.914 59.283,240.780 59.390 C 240.415 59.680,232.925 59.658,232.827 59.367 C 232.788 59.248,232.586 59.149,232.379 59.147 C 231.786 59.143,228.737 58.468,228.630 58.317 C 228.577 58.243,228.183 58.070,227.754 57.935 C 226.521 57.545,223.810 56.106,222.529 55.162 C 221.423 54.346,218.925 51.820,218.648 51.235 C 218.495 50.914,218.297 50.650,218.208 50.650 C 218.118 50.650,217.923 50.361,217.775 50.006 C 217.627 49.652,217.401 49.242,217.273 49.096 C 217.145 48.949,216.868 48.283,216.658 47.615 C 216.448 46.947,216.196 46.252,216.099 46.070 C 215.475 44.907,215.545 39.658,216.201 38.422 C 216.352 38.135,216.477 37.774,216.478 37.619 C 216.479 37.304,216.975 36.042,217.151 35.906 C 217.212 35.859,217.449 35.414,217.677 34.918 C 217.905 34.422,218.197 33.975,218.326 33.926 C 218.455 33.876,218.560 33.713,218.560 33.564 C 218.560 33.065,222.144 29.631,223.390 28.938 C 223.739 28.743,224.110 28.515,224.214 28.430 C 224.662 28.067,226.870 27.000,227.667 26.761 C 228.144 26.619,228.577 26.434,228.629 26.350 C 228.734 26.184,231.882 25.499,232.543 25.499 C 232.771 25.499,232.958 25.425,232.958 25.334 C 232.958 24.979,240.183 24.928,240.853 25.278 M222.203 41.280 L 222.203 49.777 226.670 49.824 L 231.136 49.870 231.136 50.824 L 231.136 51.778 229.792 51.829 L 228.448 51.879 228.448 52.566 L 228.448 53.252 234.952 53.252 L 241.457 53.252 241.457 52.559 L 241.457 51.865 240.234 51.865 L 239.011 51.865 239.063 50.867 L 239.115 49.870 240.797 49.820 L 242.478 49.771 241.995 49.040 C 241.729 48.638,241.391 47.997,241.244 47.615 L 240.975 46.921 231.893 46.834 L 222.810 46.748 222.765 40.112 L 222.719 33.476 234.994 33.520 L 247.268 33.565 247.316 35.863 C 247.356 37.767,247.409 38.161,247.624 38.161 C 247.846 38.161,247.877 37.771,247.836 35.516 L 247.788 32.871 234.996 32.826 L 222.203 32.782 222.203 41.280 M232.834 36.864 C 232.737 37.053,232.484 38.222,232.274 39.462 C 231.662 43.066,231.334 43.560,230.868 41.579 C 230.335 39.311,230.046 39.009,229.507 40.156 L 229.140 40.937 227.059 40.937 C 225.788 40.937,224.978 41.004,224.978 41.110 C 224.978 41.493,229.625 41.324,229.748 40.937 C 229.905 40.445,230.157 40.507,230.280 41.067 C 230.444 41.817,231.263 44.127,231.432 44.318 C 231.660 44.575,231.861 44.145,231.990 43.126 C 232.051 42.637,232.259 41.574,232.450 40.763 C 232.642 39.952,232.836 39.113,232.881 38.899 C 233.001 38.333,233.259 38.420,233.392 39.072 C 233.881 41.474,234.342 41.961,234.843 40.604 C 235.219 39.584,235.419 39.564,235.886 40.499 C 236.489 41.708,237.517 41.628,237.932 40.340 C 238.179 39.575,238.383 39.632,238.838 40.589 C 239.297 41.556,239.661 41.700,239.824 40.980 C 240.341 38.692,240.763 37.678,240.763 38.724 C 240.763 38.975,240.832 39.224,240.916 39.276 C 241.001 39.328,241.124 39.806,241.190 40.338 C 241.314 41.323,241.634 41.696,242.024 41.307 C 242.162 41.169,242.164 41.110,242.031 41.110 C 241.752 41.110,241.623 40.712,241.214 38.595 C 240.845 36.684,240.640 36.309,240.408 37.121 C 239.424 40.561,239.382 40.623,238.837 39.462 C 238.358 38.444,238.223 38.475,237.670 39.730 C 237.033 41.172,236.505 41.156,235.997 39.679 C 235.583 38.477,235.421 38.446,234.865 39.463 C 234.321 40.460,234.148 40.386,233.812 39.014 C 233.662 38.402,233.480 37.745,233.407 37.554 C 232.970 36.405,233.033 36.481,232.834 36.864 M246.315 40.621 C 245.008 40.996,243.582 42.456,243.211 43.799 C 242.129 47.724,245.785 51.184,249.509 49.759 L 250.479 49.387 251.480 50.465 L 252.480 51.542 253.213 50.802 L 253.946 50.062 253.529 49.619 C 251.818 47.803,251.932 48.045,252.298 47.008 C 253.652 43.172,250.215 39.503,246.315 40.621 M249.104 41.315 C 251.208 42.048,252.398 44.544,251.661 46.678 C 250.302 50.615,244.417 50.063,243.799 45.941 C 243.335 42.848,246.239 40.316,249.104 41.315 M233.273 48.005 C 233.320 48.336,233.249 48.395,232.806 48.395 C 232.233 48.395,232.005 48.174,232.161 47.768 C 232.324 47.342,233.206 47.530,233.273 48.005 M236.222 48.005 C 236.275 48.378,236.223 48.395,235.066 48.395 C 233.856 48.395,233.593 48.260,233.785 47.738 C 233.948 47.296,236.156 47.539,236.222 48.005 M237.861 47.745 C 238.002 48.149,237.779 48.395,237.275 48.395 C 236.856 48.395,236.774 48.324,236.774 47.962 C 236.774 47.486,237.706 47.300,237.861 47.745 " stroke="none" fill="#fbfcfb" fill-rule="evenodd"></path><path id="path1" d="M232.972 25.433 C 231.978 25.568,231.080 25.746,230.977 25.830 C 230.874 25.913,230.323 26.077,229.753 26.194 C 229.184 26.311,228.443 26.554,228.108 26.733 C 227.773 26.913,227.394 27.060,227.265 27.060 C 226.967 27.060,224.193 28.543,223.488 29.080 C 223.192 29.304,222.863 29.488,222.756 29.488 C 222.650 29.488,222.479 29.644,222.376 29.835 C 222.274 30.026,222.098 30.182,221.984 30.182 C 221.754 30.182,219.254 32.607,219.254 32.831 C 219.254 32.909,218.949 33.379,218.576 33.876 C 215.771 37.614,214.919 44.003,216.751 47.568 C 216.983 48.020,217.173 48.465,217.173 48.558 C 217.173 48.747,217.758 49.677,218.555 50.754 C 218.844 51.145,219.081 51.537,219.081 51.626 C 219.081 51.841,221.731 54.467,221.948 54.467 C 222.042 54.467,222.217 54.623,222.336 54.814 C 222.455 55.004,222.630 55.160,222.724 55.160 C 222.819 55.160,223.267 55.420,223.720 55.736 C 224.174 56.053,225.169 56.611,225.932 56.977 C 226.696 57.342,227.526 57.746,227.777 57.873 C 228.028 58.001,228.756 58.226,229.395 58.374 C 230.033 58.522,230.686 58.713,230.846 58.798 C 232.388 59.617,242.493 59.626,243.018 58.809 C 243.066 58.734,243.378 58.618,243.712 58.550 C 244.789 58.333,246.141 57.876,246.141 57.731 C 246.141 57.653,246.264 57.589,246.415 57.589 C 246.566 57.589,247.249 57.304,247.933 56.955 C 248.616 56.606,249.351 56.235,249.565 56.131 C 249.779 56.026,249.955 55.882,249.955 55.811 C 249.956 55.739,250.043 55.681,250.149 55.681 C 250.738 55.681,255.334 51.276,255.334 50.712 C 255.334 50.583,255.412 50.477,255.507 50.477 C 255.603 50.477,255.681 50.360,255.681 50.217 C 255.681 50.074,255.740 49.957,255.812 49.957 C 255.958 49.957,256.722 48.370,256.722 48.067 C 256.722 47.962,256.789 47.875,256.872 47.875 C 257.041 47.875,257.589 46.056,257.589 45.493 C 257.589 45.293,257.686 45.096,257.806 45.056 C 257.967 45.003,258.023 44.298,258.023 42.324 C 258.023 40.351,257.967 39.646,257.806 39.592 C 257.686 39.553,257.589 39.387,257.589 39.224 C 257.589 38.697,257.057 36.862,256.887 36.803 C 256.796 36.771,256.722 36.662,256.722 36.561 C 256.722 36.362,256.003 34.833,255.843 34.692 C 255.789 34.644,255.453 34.161,255.095 33.618 C 254.356 32.494,251.710 29.903,250.675 29.291 C 250.295 29.065,249.529 28.606,248.973 28.269 C 248.417 27.933,247.611 27.515,247.181 27.340 C 246.752 27.165,246.088 26.882,245.707 26.710 C 245.325 26.539,244.545 26.300,243.972 26.180 C 243.400 26.060,242.842 25.894,242.733 25.811 C 241.979 25.238,236.087 25.010,232.972 25.433 M248.049 35.559 L 248.049 38.508 247.528 38.508 L 247.008 38.508 247.008 36.080 L 247.008 33.651 235.039 33.651 L 223.070 33.651 223.070 40.156 L 223.070 46.661 232.094 46.661 L 241.118 46.661 241.272 47.051 C 241.356 47.266,241.521 47.698,241.638 48.011 C 241.755 48.324,242.082 48.870,242.364 49.225 L 242.877 49.870 241.030 49.919 L 239.184 49.969 239.236 50.787 L 239.289 51.605 240.556 51.656 L 241.822 51.707 241.770 52.523 L 241.717 53.339 234.952 53.339 L 228.187 53.339 228.187 52.559 L 228.187 51.778 229.532 51.727 L 230.876 51.677 230.876 50.820 L 230.876 49.962 226.409 49.916 L 221.943 49.870 221.895 41.631 C 221.868 37.099,221.889 33.216,221.941 33.001 L 222.036 32.611 235.042 32.611 L 248.049 32.611 248.049 35.559 M233.815 38.247 C 234.278 40.002,234.393 40.116,234.764 39.189 C 235.168 38.178,235.641 38.299,236.168 39.549 C 236.428 40.166,236.673 40.503,236.860 40.503 C 237.048 40.503,237.293 40.166,237.553 39.549 C 238.067 38.330,238.469 38.232,238.919 39.215 C 239.324 40.098,239.412 39.999,239.899 38.127 C 240.522 35.727,240.904 35.898,241.485 38.841 C 241.774 40.304,241.947 40.828,242.171 40.911 C 242.626 41.081,242.135 41.677,241.601 41.601 C 241.243 41.550,241.166 41.384,240.931 40.156 L 240.664 38.768 240.253 40.069 C 239.623 42.061,239.303 42.227,238.773 40.839 C 238.412 39.893,238.298 39.883,237.901 40.763 C 237.604 41.421,237.548 41.457,236.820 41.457 C 236.085 41.457,236.040 41.427,235.779 40.763 C 235.430 39.875,235.356 39.889,234.866 40.937 C 234.642 41.414,234.414 41.803,234.359 41.801 C 234.068 41.794,233.864 41.435,233.570 40.416 C 233.088 38.742,233.046 38.787,232.515 41.542 C 231.800 45.255,231.445 45.487,230.617 42.778 C 230.087 41.042,230.018 40.941,229.662 41.370 C 229.416 41.666,225.267 41.753,224.823 41.472 C 224.074 40.997,224.778 40.763,226.953 40.763 L 229.113 40.763 229.411 39.983 C 229.898 38.708,230.229 38.909,230.885 40.876 L 231.443 42.551 232.040 39.621 C 232.813 35.824,233.113 35.592,233.815 38.247 M249.668 40.578 C 252.201 41.663,253.547 44.796,252.489 47.142 L 252.168 47.854 253.014 48.746 C 254.266 50.068,254.264 50.056,253.408 50.929 C 252.460 51.895,252.480 51.898,251.344 50.658 L 250.390 49.618 249.350 49.979 C 244.349 51.715,240.531 45.225,244.392 41.553 C 245.684 40.325,248.056 39.887,249.668 40.578 M246.921 41.446 C 242.425 42.540,243.185 49.114,247.808 49.114 C 249.375 49.114,250.676 48.304,251.325 46.924 C 252.701 43.997,250.040 40.687,246.921 41.446 M232.390 47.807 C 232.201 47.996,232.429 48.222,232.809 48.222 C 233.013 48.222,233.130 48.131,233.088 48.005 C 233.005 47.758,232.565 47.632,232.390 47.807 M233.953 47.805 C 233.684 48.074,234.079 48.222,235.064 48.222 C 235.822 48.222,236.089 48.163,236.037 48.005 C 235.960 47.773,234.158 47.600,233.953 47.805 M236.894 47.813 C 236.713 47.993,236.942 48.222,237.304 48.222 C 237.489 48.222,237.641 48.105,237.641 47.962 C 237.641 47.705,237.108 47.598,236.894 47.813 " stroke="none" fill="#7cd48c" fill-rule="evenodd"></path><path id="path2" d="M235.559 25.093 C 237.452 25.220,239.337 25.228,239.263 25.108 C 239.218 25.037,238.191 24.992,236.980 25.010 C 235.769 25.027,235.130 25.064,235.559 25.093 M230.152 25.910 C 229.706 26.018,229.292 26.156,229.231 26.217 C 229.061 26.389,230.767 26.003,230.954 25.827 C 231.045 25.742,231.084 25.681,231.041 25.693 C 230.998 25.704,230.598 25.802,230.152 25.910 M242.762 25.821 C 242.823 25.882,243.263 26.020,243.739 26.127 C 244.215 26.234,244.541 26.262,244.462 26.189 C 244.289 26.028,242.604 25.663,242.762 25.821 M245.728 26.713 C 245.812 26.795,246.222 26.979,246.639 27.122 C 247.057 27.265,247.330 27.314,247.247 27.233 C 247.163 27.151,246.753 26.967,246.335 26.825 C 245.918 26.682,245.645 26.632,245.728 26.713 M227.320 26.886 C 227.101 26.980,227.069 27.035,227.233 27.035 C 227.376 27.035,227.650 26.968,227.840 26.886 C 228.059 26.792,228.091 26.737,227.927 26.737 C 227.784 26.737,227.511 26.804,227.320 26.886 M248.236 27.809 C 248.512 28.020,249.610 28.593,249.610 28.526 C 249.610 28.410,248.518 27.755,248.323 27.754 C 248.236 27.754,248.197 27.779,248.236 27.809 M223.330 29.070 L 222.810 29.517 223.374 29.144 C 223.684 28.939,223.938 28.737,223.938 28.696 C 223.938 28.566,223.864 28.611,223.330 29.070 M251.518 29.862 C 251.565 29.902,252.190 30.477,252.905 31.138 L 254.206 32.341 253.166 31.249 C 252.593 30.648,251.969 30.074,251.778 29.973 C 251.587 29.871,251.470 29.821,251.518 29.862 M218.883 33.261 C 218.384 33.864,218.173 34.172,218.258 34.172 C 218.306 34.172,218.554 33.899,218.809 33.565 C 219.281 32.945,219.339 32.711,218.883 33.261 M221.895 41.317 C 221.874 45.962,221.915 49.799,221.986 49.843 C 222.104 49.916,222.102 43.698,221.981 35.906 C 221.955 34.237,221.917 36.671,221.895 41.317 M222.975 40.156 C 222.975 43.781,222.998 45.289,223.027 43.507 C 223.055 41.724,223.055 38.758,223.027 36.915 C 222.999 35.072,222.976 36.531,222.975 40.156 M247.046 36.036 L 247.008 38.508 247.528 38.508 C 247.814 38.508,248.049 38.441,248.049 38.359 C 248.049 38.277,247.856 38.246,247.620 38.291 L 247.191 38.373 247.138 35.969 L 247.084 33.565 247.046 36.036 M217.760 34.784 C 217.602 35.026,217.504 35.255,217.543 35.293 C 217.581 35.332,217.744 35.134,217.905 34.854 C 218.263 34.231,218.157 34.179,217.760 34.784 M216.739 36.774 C 216.591 37.060,216.509 37.294,216.557 37.294 C 216.604 37.294,216.764 37.060,216.912 36.774 C 217.060 36.487,217.142 36.253,217.095 36.253 C 217.047 36.253,216.887 36.487,216.739 36.774 M241.140 37.728 C 241.137 37.918,241.202 38.231,241.284 38.422 C 241.474 38.864,241.474 38.407,241.284 37.814 C 241.172 37.466,241.144 37.449,241.140 37.728 M257.453 38.248 C 257.455 38.439,257.516 38.829,257.589 39.115 C 257.708 39.583,257.722 39.592,257.725 39.202 C 257.726 38.964,257.665 38.573,257.589 38.335 C 257.480 37.995,257.451 37.976,257.453 38.248 M232.853 39.123 C 232.792 39.366,232.791 39.614,232.850 39.673 C 232.909 39.732,232.958 39.607,232.958 39.394 C 232.958 39.181,233.035 39.056,233.131 39.115 C 233.226 39.174,233.304 39.101,233.304 38.952 C 233.304 38.516,232.974 38.642,232.853 39.123 M234.003 39.376 C 234.004 39.675,234.293 40.186,234.393 40.064 C 234.430 40.019,234.358 39.788,234.232 39.549 C 234.106 39.310,234.003 39.232,234.003 39.376 M215.823 39.679 C 215.617 40.180,215.674 44.885,215.889 45.100 C 216.027 45.238,216.042 45.063,215.942 44.458 C 215.767 43.393,215.767 41.260,215.941 40.199 C 216.082 39.346,216.038 39.155,215.823 39.679 M239.025 39.679 C 239.225 40.092,239.549 40.208,239.549 39.867 C 239.549 39.756,239.498 39.715,239.436 39.778 C 239.374 39.840,239.214 39.755,239.080 39.590 C 238.861 39.320,238.855 39.329,239.025 39.679 M240.104 40.017 C 239.847 40.854,239.972 40.978,240.243 40.156 C 240.357 39.809,240.417 39.492,240.376 39.451 C 240.335 39.410,240.212 39.665,240.104 40.017 M246.878 40.362 C 247.045 40.406,247.318 40.406,247.485 40.362 C 247.652 40.319,247.515 40.283,247.181 40.283 C 246.847 40.283,246.711 40.319,246.878 40.362 M247.890 40.306 C 247.929 40.340,248.309 40.413,248.733 40.467 C 249.233 40.531,249.416 40.510,249.254 40.407 C 249.022 40.260,247.727 40.164,247.890 40.306 M224.687 41.041 C 224.503 41.522,225.001 41.626,227.320 41.592 L 229.575 41.559 227.233 41.465 C 225.142 41.380,224.894 41.338,224.916 41.067 C 224.946 40.687,224.828 40.674,224.687 41.041 M230.890 41.246 C 230.873 41.512,231.342 42.671,231.465 42.671 C 231.513 42.671,231.449 42.418,231.323 42.108 C 231.197 41.797,231.051 41.427,230.999 41.284 C 230.937 41.115,230.899 41.102,230.890 41.246 M236.065 41.338 C 236.142 41.416,236.548 41.453,236.967 41.422 L 237.728 41.364 236.825 41.280 C 236.329 41.234,235.987 41.260,236.065 41.338 M247.875 41.284 C 248.114 41.360,248.465 41.422,248.656 41.422 C 248.930 41.422,248.912 41.394,248.569 41.284 C 248.330 41.207,247.979 41.145,247.788 41.145 C 247.514 41.145,247.532 41.174,247.875 41.284 M251.738 45.273 C 251.738 45.703,251.772 45.878,251.814 45.663 C 251.855 45.449,251.855 45.098,251.814 44.883 C 251.772 44.668,251.738 44.844,251.738 45.273 M252.772 45.273 C 252.772 45.607,252.808 45.744,252.852 45.577 C 252.895 45.410,252.895 45.137,252.852 44.970 C 252.808 44.803,252.772 44.939,252.772 45.273 M257.613 45.447 C 257.597 45.685,257.544 46.075,257.495 46.314 L 257.406 46.748 257.592 46.321 C 257.694 46.086,257.747 45.696,257.710 45.453 L 257.641 45.013 257.613 45.447 M252.529 46.487 C 252.474 46.726,252.376 47.077,252.310 47.268 C 252.244 47.459,252.316 47.396,252.472 47.128 C 252.627 46.860,252.725 46.509,252.691 46.347 C 252.646 46.138,252.600 46.178,252.529 46.487 M241.077 46.921 C 241.165 47.112,241.280 47.385,241.333 47.528 C 241.417 47.753,241.432 47.752,241.443 47.518 C 241.451 47.369,241.336 47.096,241.187 46.911 C 240.922 46.580,240.920 46.580,241.077 46.921 M244.059 46.786 C 244.059 46.887,244.220 47.154,244.416 47.379 L 244.773 47.788 244.469 47.268 C 244.068 46.583,244.059 46.573,244.059 46.786 M243.019 46.936 C 243.020 47.130,243.674 48.222,243.790 48.222 C 243.836 48.222,243.706 47.929,243.501 47.572 C 243.043 46.770,243.018 46.738,243.019 46.936 M216.739 47.875 C 216.887 48.161,217.047 48.395,217.095 48.395 C 217.142 48.395,217.060 48.161,216.912 47.875 C 216.764 47.589,216.604 47.355,216.557 47.355 C 216.509 47.355,216.591 47.589,216.739 47.875 M233.981 48.275 C 234.059 48.352,234.543 48.390,235.058 48.360 L 235.993 48.304 234.917 48.220 C 234.325 48.173,233.904 48.198,233.981 48.275 M252.385 48.157 C 252.385 48.248,252.756 48.671,253.209 49.097 L 254.033 49.870 253.252 49.006 C 252.823 48.531,252.452 48.108,252.428 48.066 C 252.405 48.025,252.385 48.066,252.385 48.157 M244.044 48.627 C 244.297 48.943,245.273 49.686,245.273 49.564 C 245.273 49.526,244.941 49.231,244.536 48.908 C 244.131 48.586,243.909 48.460,244.044 48.627 M256.338 49.052 L 256.042 49.696 256.382 49.287 C 256.569 49.062,256.722 48.769,256.722 48.636 C 256.722 48.280,256.665 48.341,256.338 49.052 M217.527 49.318 C 217.523 49.395,217.606 49.620,217.711 49.816 C 217.979 50.318,219.081 51.745,219.081 51.591 C 219.081 51.521,218.866 51.188,218.604 50.852 C 218.341 50.515,217.993 50.000,217.830 49.708 C 217.667 49.415,217.531 49.240,217.527 49.318 M230.928 50.824 C 230.928 51.349,230.960 51.563,231.000 51.301 C 231.040 51.039,231.040 50.609,231.000 50.347 C 230.960 50.085,230.928 50.299,230.928 50.824 M239.049 50.781 C 239.038 51.281,239.091 51.691,239.167 51.691 C 239.243 51.691,239.278 51.399,239.244 51.041 C 239.138 49.925,239.070 49.834,239.049 50.781 M247.400 50.255 C 247.664 50.294,248.054 50.293,248.268 50.252 C 248.481 50.211,248.265 50.178,247.788 50.180 C 247.311 50.181,247.137 50.215,247.400 50.255 M253.339 50.824 C 252.535 51.648,252.472 51.657,251.787 51.041 L 251.258 50.564 251.767 51.127 C 252.423 51.854,252.512 51.842,253.426 50.911 C 253.847 50.481,254.152 50.130,254.104 50.130 C 254.056 50.130,253.712 50.442,253.339 50.824 M253.144 53.203 C 252.274 54.083,251.689 54.732,251.843 54.646 C 252.208 54.445,254.906 51.717,254.804 51.653 C 254.762 51.626,254.015 52.324,253.144 53.203 M241.660 52.428 L 241.631 53.252 234.962 53.252 L 228.294 53.252 228.224 52.557 L 228.153 51.862 228.170 52.601 L 228.187 53.339 234.914 53.385 C 242.355 53.435,241.886 53.511,241.758 52.273 C 241.692 51.638,241.687 51.646,241.660 52.428 M223.056 55.397 C 223.287 55.681,223.938 56.111,223.938 55.980 C 223.938 55.947,223.684 55.734,223.374 55.507 C 223.025 55.251,222.904 55.210,223.056 55.397 M248.829 56.475 C 248.448 56.703,248.213 56.890,248.309 56.892 C 248.517 56.894,249.610 56.244,249.610 56.117 C 249.610 56.004,249.646 55.987,248.829 56.475 M246.661 57.513 C 246.242 57.672,246.164 57.746,246.411 57.753 C 246.607 57.758,246.920 57.648,247.105 57.508 C 247.500 57.209,247.464 57.209,246.661 57.513 M229.223 58.422 C 229.283 58.482,229.684 58.620,230.114 58.730 C 230.545 58.839,230.834 58.866,230.756 58.789 C 230.679 58.712,230.278 58.574,229.865 58.482 C 229.452 58.389,229.163 58.362,229.223 58.422 M243.365 58.630 C 243.022 58.740,243.004 58.769,243.278 58.769 C 243.469 58.769,243.820 58.706,244.059 58.630 C 244.402 58.520,244.420 58.491,244.146 58.491 C 243.955 58.491,243.604 58.553,243.365 58.630 M234.459 59.540 C 234.503 59.612,235.584 59.670,236.860 59.670 C 238.137 59.670,239.218 59.612,239.262 59.540 C 239.306 59.469,238.225 59.410,236.860 59.410 C 235.495 59.410,234.414 59.469,234.459 59.540 " stroke="none" fill="#bcecd4" fill-rule="evenodd"></path><path id="path3" d="M233.912 25.152 L 233.044 25.271 233.858 25.298 C 234.305 25.313,234.720 25.247,234.779 25.152 C 234.838 25.056,234.862 24.991,234.832 25.006 C 234.803 25.021,234.389 25.086,233.912 25.152 M239.361 25.206 C 239.439 25.285,239.806 25.322,240.177 25.290 L 240.850 25.231 240.034 25.147 C 239.585 25.101,239.282 25.128,239.361 25.206 M222.144 32.740 C 222.099 32.812,227.868 32.850,234.964 32.825 L 247.866 32.780 247.921 35.514 L 247.976 38.248 247.969 35.473 L 247.962 32.697 235.093 32.653 C 228.016 32.628,222.188 32.667,222.144 32.740 M222.802 33.695 C 222.757 33.815,222.740 36.801,222.767 40.330 L 222.814 46.748 222.856 40.201 L 222.897 33.654 234.996 33.608 L 247.095 33.562 234.990 33.520 C 225.415 33.487,222.868 33.523,222.802 33.695 M225.983 40.892 C 226.583 40.926,227.519 40.926,228.064 40.891 C 228.609 40.857,228.118 40.829,226.973 40.829 C 225.828 40.830,225.383 40.858,225.983 40.892 M227.549 46.791 C 230.060 46.818,234.119 46.818,236.569 46.791 C 239.019 46.764,236.964 46.742,232.003 46.742 C 227.042 46.742,225.038 46.764,227.549 46.791 M234.258 47.631 C 235.071 47.762,236.214 47.778,236.140 47.658 C 236.096 47.587,235.576 47.539,234.985 47.552 C 234.395 47.565,234.068 47.601,234.258 47.631 M222.180 49.830 C 222.253 49.903,224.259 49.942,226.638 49.916 L 230.963 49.869 226.505 49.783 C 224.053 49.735,222.106 49.756,222.180 49.830 M231.099 50.737 C 231.100 51.214,231.134 51.389,231.174 51.125 C 231.214 50.861,231.213 50.471,231.172 50.258 C 231.130 50.044,231.098 50.260,231.099 50.737 M255.236 50.940 C 254.969 51.291,254.839 51.522,254.947 51.455 C 255.170 51.318,255.920 50.304,255.800 50.304 C 255.757 50.304,255.503 50.590,255.236 50.940 M228.929 51.818 C 229.337 51.855,229.962 51.855,230.317 51.817 C 230.672 51.780,230.338 51.750,229.575 51.751 C 228.812 51.751,228.521 51.782,228.929 51.818 M239.766 51.818 C 240.124 51.855,240.709 51.855,241.067 51.818 C 241.425 51.780,241.132 51.750,240.416 51.750 C 239.701 51.750,239.408 51.780,239.766 51.818 M233.261 59.446 C 233.476 59.487,233.827 59.487,234.042 59.446 C 234.256 59.405,234.081 59.371,233.651 59.371 C 233.222 59.371,233.046 59.405,233.261 59.446 M239.311 59.461 C 239.265 59.536,239.514 59.570,239.865 59.535 C 240.825 59.440,240.939 59.353,240.123 59.337 C 239.723 59.330,239.358 59.385,239.311 59.461 " stroke="none" fill="#d4f4e4" fill-rule="evenodd"></path><path id="path4" d="" stroke="none" fill="#ec100ec" fill-rule="evenodd"></path></g></svg>